<?xml version="1.0" encoding="utf-8"?>
<!-- Generator: Adobe Illustrator 19.0.0, SVG Export Plug-In . SVG Version: 6.00 Build 0)  -->
<svg version="1.1" id="Layer_1" xmlns="http://www.w3.org/2000/svg" xmlns:xlink="http://www.w3.org/1999/xlink" x="0px" y="0px"
	 viewBox="0 0 50 50" style="enable-background:new 0 0 50 50;" xml:space="preserve">
<style type="text/css">
	.st0{fill:#999999;}
</style>
<g id="XMLID_2_">
	<g id="XMLID_54_">
		<path id="XMLID_55_" class="st0" d="M46.5,3c-1.7-1.6-3.5-2.4-5.4-2.4c-3.1,0-5.3,2-5.9,2.6C34.3,4,5.1,33.3,5.1,33.3
			c-0.2,0.2-0.3,0.4-0.4,0.7c-0.7,2.4-4,13.3-4,13.4c-0.2,0.6,0,1.2,0.4,1.6c0.3,0.3,0.7,0.4,1.1,0.4c0.2,0,0.3,0,0.5-0.1
			c0.1,0,11.3-3.6,13.1-4.2c0.2-0.1,0.5-0.2,0.6-0.4c1.2-1.1,28.4-28.1,30.2-30c1.9-1.9,2.8-3.9,2.8-6C49.4,6.8,48.4,4.8,46.5,3z
			 M34.7,8.1c0.8,0.2,2.6,0.8,4.5,2.7c1.9,1.9,2.4,4.1,2.5,4.6c-6,6-19.8,19.6-25.2,24.9c-0.5-1.2-1.3-2.6-2.6-3.9
			c-1.6-1.6-3.2-2.5-4.5-3C14.8,28,28.8,14,34.7,8.1z M7.3,35.9c0.8,0.2,2.6,0.9,4.3,2.7c1.4,1.4,2,2.9,2.3,3.8
			c-2.1,0.7-6.7,2.3-9.7,3.2C5.2,42.8,6.6,38.3,7.3,35.9z M44.4,12.6c-0.1,0.1-0.2,0.2-0.3,0.3c-0.5-1.2-1.3-2.8-2.8-4.3
			c-1.5-1.5-3-2.4-4.2-2.9c0.1-0.1,0.2-0.2,0.2-0.2c0.2-0.2,1.8-1.7,3.7-1.7c1.1,0,2.2,0.5,3.3,1.5c1.3,1.2,1.9,2.4,1.9,3.5
			C46.3,10,45.7,11.2,44.4,12.6z"/>
	</g>
</g>
</svg>
