<?xml version="1.0" encoding="utf-8"?>
<!-- Generator: Adobe Illustrator 19.0.0, SVG Export Plug-In . SVG Version: 6.00 Build 0)  -->
<svg version="1.1" xmlns="http://www.w3.org/2000/svg" xmlns:xlink="http://www.w3.org/1999/xlink" x="0px" y="0px"
	 viewBox="0 0 50 50" style="enable-background:new 0 0 50 50;" xml:space="preserve">
<style type="text/css">
	.st0{display:none;}
	.st1{display:inline;}
	.st2{fill:#69D2E7;}
	.st3{fill:#A7DBD8;}
</style>
<g id="Layer_1" class="st0">
	<g id="XMLID_3_" class="st1">
		<path id="XMLID_10_" class="st2" d="M10.8,10h28.4c2.3,0,3.4-2.9,1.5-4.4c0,0,0,0-0.1-0.1c-0.4-0.3-1-0.5-1.5-0.5H10.9
			c-0.6,0-1.1,0.2-1.5,0.5c0,0,0,0-0.1,0.1C7.4,7.1,8.4,10,10.8,10z"/>
		<path id="XMLID_11_" class="st2" d="M9.3,44.4C9.3,44.4,9.3,44.5,9.3,44.4c0.5,0.4,1,0.6,1.6,0.6h28.3c0.6,0,1.1-0.2,1.5-0.5
			c0,0,0,0,0.1-0.1c1.8-1.5,0.8-4.4-1.5-4.4H10.8C8.4,40,7.4,42.9,9.3,44.4z"/>
		<path id="XMLID_12_" class="st2" d="M2.9,36.6C2.9,36.6,2.9,36.7,2.9,36.6C3.3,37.5,4.2,38,5.1,38c6.5,0,33.3,0,39.8,0
			c0.9,0,1.8-0.5,2.2-1.3c0,0,0,0,0,0C48,35,46.8,33,44.9,33c-8.9,0-31,0-39.9,0C3.2,33,2,35,2.9,36.6z"/>
		<path id="XMLID_13_" class="st2" d="M32.3,3c1.1,0,1.3-1.5,0.3-1.8C30.2,0.4,27.7,0,25,0s-5.2,0.4-7.6,1.2c-1,0.3-0.8,1.8,0.3,1.8
			H32.3z"/>
		<path id="XMLID_14_" class="st2" d="M2.9,13.3C2.9,13.3,2.9,13.4,2.9,13.3C2,15,3.2,17,5.1,17c8.9,0,31,0,39.9,0
			c1.9,0,3.1-2,2.2-3.6c0,0,0,0,0,0c-0.4-0.8-1.3-1.3-2.2-1.3c-6.5,0-33.3,0-39.8,0C4.2,12,3.3,12.5,2.9,13.3z"/>
		<path id="XMLID_15_" class="st2" d="M0.3,28.9C0.3,28.9,0.3,28.9,0.3,28.9C0.5,30.1,1.6,31,2.8,31h44.5c1.2,0,2.3-0.9,2.4-2.1
			c0,0,0,0,0,0c0.2-1.5-0.9-2.9-2.4-2.9c-8.7,0-35.8,0-44.5,0C1.2,26,0.1,27.4,0.3,28.9z"/>
		<path id="XMLID_16_" class="st2" d="M17.7,47c-1.1,0-1.3,1.5-0.3,1.8c2.4,0.8,5,1.2,7.6,1.2s5.2-0.4,7.6-1.2
			c1-0.3,0.8-1.8-0.3-1.8H17.7z"/>
		<path id="XMLID_17_" class="st2" d="M0.3,21.1C0.3,21.1,0.3,21.1,0.3,21.1C0.1,22.6,1.2,24,2.8,24c8.7,0,35.8,0,44.5,0
			c1.5,0,2.7-1.4,2.4-2.9c0,0,0,0,0,0c-0.2-1.2-1.2-2.1-2.4-2.1H2.8C1.6,19,0.5,19.9,0.3,21.1z"/>
	</g>
</g>
<g id="Layer_2">
	<circle id="XMLID_1_" class="st3" cx="25" cy="25" r="25"/>
</g>
</svg>
