<svg id="Layer_1" xmlns="http://www.w3.org/2000/svg" viewBox="0 0 50 50"><style>.st0{fill:#999}</style><g id="XMLID_2_"><g id="XMLID_54_"><path id="XMLID_55_" class="st0" d="M46.5 3C44.8 1.4 43 .6 41.1.6c-3.1 0-5.3 2-5.9 2.6-.9.8-30.1 30.1-30.1 30.1-.2.2-.3.4-.4.7-.7 2.4-4 13.3-4 13.4-.2.6 0 1.2.4 1.6.3.3.7.4 1.1.4.2 0 .3 0 .5-.1.1 0 11.3-3.6 13.1-4.2.2-.1.5-.2.6-.4 1.2-1.1 28.4-28.1 30.2-30 1.9-1.9 2.8-3.9 2.8-6 0-1.9-1-3.9-2.9-5.7zM34.7 8.1c.8.2 2.6.8 4.5 2.7 1.9 1.9 2.4 4.1 2.5 4.6-6 6-19.8 19.6-25.2 24.9-.5-1.2-1.3-2.6-2.6-3.9-1.6-1.6-3.2-2.5-4.5-3L34.7 8.1zM7.3 35.9c.8.2 2.6.9 4.3 2.7 1.4 1.4 2 2.9 2.3 3.8-2.1.7-6.7 2.3-9.7 3.2 1-2.8 2.4-7.3 3.1-9.7zm37.1-23.3l-.3.3c-.5-1.2-1.3-2.8-2.8-4.3-1.5-1.5-3-2.4-4.2-2.9l.2-.2c.2-.2 1.8-1.7 3.7-1.7 1.1 0 2.2.5 3.3 1.5 1.3 1.2 1.9 2.4 1.9 3.5.1 1.2-.5 2.4-1.8 3.8z"/></g></g></svg>