<?xml version="1.0" encoding="utf-8"?>
<!-- Generator: Adobe Illustrator 19.0.0, SVG Export Plug-In . SVG Version: 6.00 Build 0)  -->
<svg version="1.1" id="Layer_1" xmlns="http://www.w3.org/2000/svg" xmlns:xlink="http://www.w3.org/1999/xlink" x="0px" y="0px"
	 viewBox="0 0 50 50" style="enable-background:new 0 0 50 50;" xml:space="preserve">
<style type="text/css">
	.st0{display:none;}
	.st1{display:inline;}
	.st2{fill:#69D2E7;}
	.st3{display:inline;fill:#E0E4CC;}
	.st4{fill:#F38630;}
	.st5{fill:#FA6900;}
</style>
<g id="Layer_1_1_" class="st0">
	<g id="XMLID_3_" class="st1">
		<path id="XMLID_10_" class="st2" d="M10.8,10h28.4c2.3,0,3.4-2.9,1.5-4.4c0,0,0,0-0.1-0.1c-0.4-0.3-1-0.5-1.5-0.5H10.9
			c-0.6,0-1.1,0.2-1.5,0.5c0,0,0,0-0.1,0.1C7.4,7.1,8.4,10,10.8,10z"/>
		<path id="XMLID_11_" class="st2" d="M9.3,44.4C9.3,44.4,9.3,44.5,9.3,44.4c0.5,0.4,1,0.6,1.6,0.6h28.3c0.6,0,1.1-0.2,1.5-0.5
			c0,0,0,0,0.1-0.1c1.8-1.5,0.8-4.4-1.5-4.4H10.8C8.4,40,7.4,42.9,9.3,44.4z"/>
		<path id="XMLID_12_" class="st2" d="M2.9,36.6C2.9,36.6,2.9,36.7,2.9,36.6C3.3,37.5,4.2,38,5.1,38c6.5,0,33.3,0,39.8,0
			c0.9,0,1.8-0.5,2.2-1.3l0,0C48,35,46.8,33,44.9,33c-8.9,0-31,0-39.9,0C3.2,33,2,35,2.9,36.6z"/>
		<path id="XMLID_13_" class="st2" d="M32.3,3c1.1,0,1.3-1.5,0.3-1.8C30.2,0.4,27.7,0,25,0s-5.2,0.4-7.6,1.2c-1,0.3-0.8,1.8,0.3,1.8
			H32.3z"/>
		<path id="XMLID_14_" class="st2" d="M2.9,13.3C2.9,13.3,2.9,13.4,2.9,13.3C2,15,3.2,17,5.1,17c8.9,0,31,0,39.9,0
			c1.9,0,3.1-2,2.2-3.6l0,0c-0.4-0.8-1.3-1.3-2.2-1.3c-6.5,0-33.3,0-39.8,0C4.2,12,3.3,12.5,2.9,13.3z"/>
		<path id="XMLID_15_" class="st2" d="M0.3,28.9L0.3,28.9C0.5,30.1,1.6,31,2.8,31h44.5c1.2,0,2.3-0.9,2.4-2.1l0,0
			c0.2-1.5-0.9-2.9-2.4-2.9c-8.7,0-35.8,0-44.5,0C1.2,26,0.1,27.4,0.3,28.9z"/>
		<path id="XMLID_16_" class="st2" d="M17.7,47c-1.1,0-1.3,1.5-0.3,1.8c2.4,0.8,5,1.2,7.6,1.2s5.2-0.4,7.6-1.2
			c1-0.3,0.8-1.8-0.3-1.8H17.7z"/>
		<path id="XMLID_17_" class="st2" d="M0.3,21.1L0.3,21.1C0.1,22.6,1.2,24,2.8,24c8.7,0,35.8,0,44.5,0c1.5,0,2.7-1.4,2.4-2.9l0,0
			c-0.2-1.2-1.2-2.1-2.4-2.1H2.8C1.6,19,0.5,19.9,0.3,21.1z"/>
	</g>
</g>
<g id="Layer_2" class="st0">
	<circle id="XMLID_1_" class="st3" cx="25" cy="25" r="2.5"/>
	<circle id="XMLID_4_" class="st3" cx="19.7" cy="19.7" r="2.5"/>
	<circle id="XMLID_5_" class="st3" cx="14.4" cy="14.4" r="2.5"/>
	<circle id="XMLID_6_" class="st3" cx="9.1" cy="9.1" r="2.5"/>
	<circle id="XMLID_9_" class="st3" cx="5.5" cy="13.7" r="2.5"/>
	<circle id="XMLID_22_" class="st3" cx="10.5" cy="21.1" r="2.5"/>
	<circle id="XMLID_21_" class="st3" cx="3.2" cy="19.2" r="2.5"/>
	<circle id="XMLID_27_" class="st3" cx="17.5" cy="25" r="2.5"/>
	<circle id="XMLID_25_" class="st3" cx="2.5" cy="25" r="2.5"/>
	<circle id="XMLID_30_" class="st3" cx="10.5" cy="28.9" r="2.5"/>
	<circle id="XMLID_29_" class="st3" cx="3.2" cy="30.8" r="2.5"/>
	<circle id="XMLID_33_" class="st3" cx="5.5" cy="36.3" r="2.5"/>
	<circle id="XMLID_39_" class="st3" cx="19.7" cy="30.3" r="2.5"/>
	<circle id="XMLID_38_" class="st3" cx="14.4" cy="35.6" r="2.5"/>
	<circle id="XMLID_37_" class="st3" cx="9.1" cy="40.9" r="2.5"/>
	<circle id="XMLID_41_" class="st3" cx="13.7" cy="44.5" r="2.5"/>
	<circle id="XMLID_46_" class="st3" cx="21.1" cy="39.5" r="2.5"/>
	<circle id="XMLID_45_" class="st3" cx="19.2" cy="46.8" r="2.5"/>
	<circle id="XMLID_51_" class="st3" cx="25" cy="32.5" r="2.5"/>
	<circle id="XMLID_49_" class="st3" cx="25" cy="47.5" r="2.5"/>
	<circle id="XMLID_54_" class="st3" cx="28.9" cy="39.5" r="2.5"/>
	<circle id="XMLID_53_" class="st3" cx="30.8" cy="46.8" r="2.5"/>
	<circle id="XMLID_57_" class="st3" cx="36.3" cy="44.5" r="2.5"/>
	<circle id="XMLID_63_" class="st3" cx="30.3" cy="30.3" r="2.5"/>
	<circle id="XMLID_62_" class="st3" cx="35.6" cy="35.6" r="2.5"/>
	<circle id="XMLID_61_" class="st3" cx="40.9" cy="40.9" r="2.5"/>
	<circle id="XMLID_65_" class="st3" cx="44.5" cy="36.3" r="2.5"/>
	<circle id="XMLID_70_" class="st3" cx="39.5" cy="28.9" r="2.5"/>
	<circle id="XMLID_69_" class="st3" cx="46.8" cy="30.8" r="2.5"/>
	<circle id="XMLID_75_" class="st3" cx="32.5" cy="25" r="2.5"/>
	<circle id="XMLID_73_" class="st3" cx="47.5" cy="25" r="2.5"/>
	<circle id="XMLID_78_" class="st3" cx="39.5" cy="21.1" r="2.5"/>
	<circle id="XMLID_77_" class="st3" cx="46.8" cy="19.2" r="2.5"/>
	<circle id="XMLID_81_" class="st3" cx="44.5" cy="13.7" r="2.5"/>
	<circle id="XMLID_87_" class="st3" cx="30.3" cy="19.7" r="2.5"/>
	<circle id="XMLID_86_" class="st3" cx="35.6" cy="14.4" r="2.5"/>
	<circle id="XMLID_85_" class="st3" cx="40.9" cy="9.1" r="2.5"/>
	<circle id="XMLID_89_" class="st3" cx="36.3" cy="5.5" r="2.5"/>
	<circle id="XMLID_94_" class="st3" cx="28.9" cy="10.5" r="2.5"/>
	<circle id="XMLID_93_" class="st3" cx="30.8" cy="3.2" r="2.5"/>
	<circle id="XMLID_99_" class="st3" cx="25" cy="17.5" r="2.5"/>
	<circle id="XMLID_97_" class="st3" cx="25" cy="2.5" r="2.5"/>
	<circle id="XMLID_102_" class="st3" cx="21.1" cy="10.5" r="2.5"/>
	<circle id="XMLID_101_" class="st3" cx="19.2" cy="3.2" r="2.5"/>
	<circle id="XMLID_105_" class="st3" cx="13.7" cy="5.5" r="2.5"/>
</g>
<g id="Layer_3" class="st0">
	<g id="XMLID_2_" class="st1">
		<path id="XMLID_35_" class="st4" d="M25,3c12.1,0,22,9.9,22,22s-9.9,22-22,22S3,37.1,3,25S12.9,3,25,3 M25,0C11.2,0,0,11.2,0,25
			s11.2,25,25,25s25-11.2,25-25S38.8,0,25,0L25,0z"/>
	</g>
	<g id="XMLID_8_" class="st1">
		<path id="XMLID_44_" class="st4" d="M25,9.2c8.7,0,15.8,7.1,15.8,15.8S33.7,40.8,25,40.8S9.2,33.7,9.2,25S16.3,9.2,25,9.2 M25,6.2
			C14.6,6.2,6.2,14.6,6.2,25S14.6,43.8,25,43.8S43.8,35.4,43.8,25S35.4,6.2,25,6.2L25,6.2z"/>
	</g>
	<g id="XMLID_18_" class="st1">
		<path id="XMLID_55_" class="st4" d="M25,16.8c4.5,0,8.2,3.7,8.2,8.2s-3.7,8.2-8.2,8.2s-8.2-3.7-8.2-8.2S20.5,16.8,25,16.8
			 M25,13.8c-6.2,0-11.2,5-11.2,11.2s5,11.2,11.2,11.2s11.2-5,11.2-11.2S31.2,13.8,25,13.8L25,13.8z"/>
	</g>
	<g id="XMLID_19_" class="st1">
		<path id="XMLID_64_" class="st4" d="M25,23.1c1.1,0,1.9,0.9,1.9,1.9S26,26.9,25,26.9S23.1,26,23.1,25S23.9,23.1,25,23.1 M25,20.1
			c-2.7,0-4.9,2.2-4.9,4.9s2.2,4.9,4.9,4.9s4.9-2.2,4.9-4.9S27.7,20.1,25,20.1L25,20.1z"/>
	</g>
</g>
<path class="st5" d="M0,25h25L3.4,12.5C1.2,16.2,0,20.4,0,25z"/>
<path class="st5" d="M12.5,46.7L25,25L3.4,37.5C5.5,41.2,8.6,44.4,12.5,46.7z"/>
<path class="st5" d="M37.5,46.7L25,25l0,25C29.2,50,33.6,48.9,37.5,46.7z"/>
<path class="st5" d="M50,25H25l21.6,12.5C48.8,33.8,50,29.6,50,25z"/>
<path class="st5" d="M37.5,3.3L25,25l21.6-12.5C44.5,8.8,41.4,5.6,37.5,3.3z"/>
<path class="st5" d="M12.5,3.3L25,25l0-25C20.8,0,16.4,1.1,12.5,3.3z"/>
</svg>
