<?xml version="1.0" encoding="utf-8"?>
<!-- Generator: Adobe Illustrator 19.0.0, SVG Export Plug-In . SVG Version: 6.00 Build 0)  -->
<svg version="1.1" id="Layer_1" xmlns="http://www.w3.org/2000/svg" xmlns:xlink="http://www.w3.org/1999/xlink" x="0px" y="0px"
	 viewBox="0 0 50 50" style="enable-background:new 0 0 50 50;" xml:space="preserve">
<style type="text/css">
	.st0{fill:#999999;}
</style>
<g>
	<g id="XMLID_36_">
		<path id="XMLID_37_" class="st0" d="M14.6,35.6c0.3,0.3,0.7,0.5,1.1,0.5c0.4,0,0.8-0.2,1.1-0.5l18.7-18.8c0.6-0.6,0.6-1.6,0-2.2
			c-0.6-0.6-1.6-0.6-2.2,0L14.6,33.4C14,34,14,35,14.6,35.6z M23.3,32.3c0.5,2.2,0,4.5-1.8,6.2l-6.2,6c-1.3,1.3-3.1,2-4.9,2
			s-3.6-0.7-4.9-2c-2.7-2.7-2.7-7.1,0-9.8l6.1-6.3c1.3-1.3,3.1-2,4.9-2c0.6,0,1.2,0.1,1.8,0.3l2.4-2.4c-1.3-0.6-2.8-1-4.2-1
			c-2.6,0-5.1,1-7.1,2.9l-6.1,6.3c-3.9,3.9-3.9,10.3,0,14.2c2,2,4.5,2.9,7.1,2.9c2.6,0,5.1-1,7.1-2.9l6.2-6c3-3,3.6-7.2,2.1-10.8
			L23.3,32.3z M46.7,3.3c-2-2-4.5-2.9-7.1-2.9c-2.6,0-5.1,1-7.1,2.9l-6.2,6c-3.1,3.1-3.7,7.7-1.9,11.5l2.4-2.4
			c-0.7-2.4-0.2-5,1.7-6.9l6.2-6c1.3-1.3,3.1-2,4.9-2c1.9,0,3.6,0.7,4.9,2c2.7,2.7,2.7,7.1,0,9.8l-6.2,6.2c-1.3,1.3-3.1,2-4.9,2
			c-0.5,0-0.9,0-1.3,0l-2.5,2.5c1.2,0.5,2.5,0.7,3.8,0.7c2.6,0,5.1-1,7.1-2.9l6.2-6.2C50.6,13.5,50.6,7.2,46.7,3.3z"/>
	</g>
</g>
</svg>
