<?xml version="1.0" encoding="utf-8"?>
<!-- Generator: Adobe Illustrator 19.0.0, SVG Export Plug-In . SVG Version: 6.00 Build 0)  -->
<svg version="1.1" id="Layer_1" xmlns="http://www.w3.org/2000/svg" xmlns:xlink="http://www.w3.org/1999/xlink" x="0px" y="0px"
	 viewBox="0 0 50 50" style="enable-background:new 0 0 50 50;" xml:space="preserve">
<style type="text/css">
	.st0{fill-rule:evenodd;clip-rule:evenodd;fill:#999999;}
</style>
<g>
	<g id="XMLID_81_">
		<path id="XMLID_82_" class="st0" d="M8.2,19.1V2c0-0.8-0.7-1.5-1.5-1.5C5.8,0.5,5.1,1.2,5.1,2v17c-2.6,0.7-4.6,3.1-4.6,5.9
			c0,2.9,2,5.3,4.6,5.9v17c0,0.8,0.7,1.5,1.5,1.5c0.8,0,1.5-0.7,1.5-1.5v-17c2.6-0.7,4.6-3.1,4.6-5.9C12.8,22.1,10.8,19.7,8.2,19.1z
			 M6.7,28.1C6.6,28.1,6.6,28.1,6.7,28.1C6.6,28.1,6.6,28.1,6.7,28.1c-1.7,0-3.1-1.4-3.1-3.1c0-1.7,1.4-3.1,3-3.1c0,0,0,0,0,0
			c0,0,0,0,0,0c1.7,0,3,1.4,3,3.1C9.7,26.7,8.3,28.1,6.7,28.1z M26.5,28.2V2c0-0.8-0.7-1.5-1.5-1.5c-0.8,0-1.5,0.7-1.5,1.5v26.2
			c-2.6,0.7-4.6,3.1-4.6,5.9c0,2.9,2,5.3,4.6,5.9V48c0,0.8,0.7,1.5,1.5,1.5c0.8,0,1.5-0.7,1.5-1.5v-7.8c2.6-0.7,4.6-3.1,4.6-5.9
			C31.1,31.3,29.2,28.9,26.5,28.2z M25,37.2C25,37.2,25,37.2,25,37.2C25,37.2,25,37.2,25,37.2c-1.7,0-3.1-1.4-3.1-3.1
			c0-1.7,1.4-3.1,3-3.1c0,0,0,0,0,0c0,0,0,0,0,0c1.7,0,3,1.4,3,3.1C28.1,35.9,26.7,37.2,25,37.2z M44.9,9.9V2c0-0.8-0.7-1.5-1.5-1.5
			c-0.8,0-1.5,0.7-1.5,1.5v7.8c-2.6,0.7-4.6,3.1-4.6,5.9s2,5.3,4.6,5.9V48c0,0.8,0.7,1.5,1.5,1.5c0.8,0,1.5-0.7,1.5-1.5V21.8
			c2.6-0.7,4.6-3.1,4.6-5.9S47.5,10.6,44.9,9.9z M43.4,18.9C43.4,18.9,43.4,18.9,43.4,18.9C43.4,18.9,43.4,18.9,43.4,18.9
			c-1.7,0-3.1-1.4-3.1-3.1c0-1.7,1.4-3.1,3-3.1c0,0,0,0,0,0c0,0,0,0,0,0c1.7,0,3,1.4,3,3.1C46.4,17.5,45.1,18.9,43.4,18.9z"/>
	</g>
</g>
</svg>
