<?xml version="1.0" encoding="utf-8"?>
<!-- Generator: Adobe Illustrator 19.0.0, SVG Export Plug-In . SVG Version: 6.00 Build 0)  -->
<svg version="1.1" id="Capa_1" xmlns="http://www.w3.org/2000/svg" xmlns:xlink="http://www.w3.org/1999/xlink" x="0px" y="0px"
	 viewBox="281 -281 612 612" style="enable-background:new 281 -281 612 612;" xml:space="preserve">
<style type="text/css">
	.st0{fill:#999999;}
</style>
<path class="st0" d="M302.2,102.1l-0.4,0.4c-9.6,8.7-14.7,21.1-14.7,36v137.2c0,14.4,4.7,26.8,13.6,35.7
	c8.9,8.9,21.3,13.6,35.7,13.6h265.5c17.7,0,32.1-7.3,40.5-20.5l0.6-1l1-0.7c1.8-1.3,2.9-2.3,3.7-3.5l0-0.1l0-0.1l237-355.4l0,0l0,0
	c1.4-2.1,2.2-4.8,2.2-7.5v-197.4c0-0.9-0.1-1.7-0.3-2.8c-0.1-0.3-0.2-0.7-0.3-1c-0.2-0.7-0.5-1.5-0.9-2.3c-0.1-0.2-0.2-0.4-0.3-0.6
	c-0.1-0.1-0.1-0.2-0.2-0.3c-0.5-0.8-1-1.5-1.6-2.2c-0.2-0.2-0.4-0.4-0.5-0.6c-0.8-0.7-1.4-1.3-2.2-1.7l-0.2-0.1l-0.1-0.1
	c-0.1,0-0.1-0.1-0.2-0.1c-0.2-0.1-0.4-0.2-0.6-0.3c-0.7-0.4-1.4-0.7-2.1-0.9c-0.4-0.1-0.7-0.2-0.9-0.3l-0.1,0c-1-0.3-2-0.4-3.2-0.4
	H587c-4.4,0-8.5,2.1-11.1,5.6L302.5,101.7L302.2,102.1z M691.7,59.7v122.2v1.8l-1,1.5l-29.6,44.4l-11,16.5v-19.8v-87.8
	c0-8.2-1.7-15.9-4.9-22.8l-1.4-3l1.9-2.8l35.1-53.4l11-16.8V59.7z M859.5-215.4v20v125.5v1.8l-1,1.5L730.2,126l-11,16.5v-19.8v-123
	v-1.8l1-1.5l128.3-195.1L859.5-215.4z M424.9-18.1l167.3-227l1.8-2.4h3h239.7h11.1l-6.1,9.3l-149.4,227l-1.8,2.7h-3.2H429.7h-11.9
	L424.9-18.1z M352.2,80.6l43.6-59.2l1.8-2.4h3h260.7h11.1l-6.1,9.3l-40.9,62.1l-2.5,3.7l-4.3-1.3c-6.1-1.8-11.4-2.6-16.9-2.6H357
	h-11.9L352.2,80.6z M314.5,138.5c0-4.9,0.9-8.8,2.7-12l0.6-1.1l1-0.7c1.3-0.9,2.2-1.8,2.7-2.6l0.8-1.2l1.3-0.7
	c3.2-1.7,7.2-2.5,12.6-2.5h260.6h4.9c4.5,0,8.1,0.7,11.1,2.1l1.4,0.7l0.9,1.2c0.9,1.3,2.1,2.5,3.5,3.5l1.3,0.9l0.6,1.4
	c1.4,3,2,6.6,2,11.1v137.2c0.1,9.8-3,14-5.2,16.4c-3.5,3.5-8.6,5.3-15.5,5.3H336.3c-14.3,0-21.8-7.5-21.8-21.8V138.5z"/>
</svg>
