<?xml version="1.0" encoding="utf-8"?>
<!-- Generator: Adobe Illustrator 19.0.0, SVG Export Plug-In . SVG Version: 6.00 Build 0)  -->
<svg version="1.1" id="Layer_1" xmlns="http://www.w3.org/2000/svg" xmlns:xlink="http://www.w3.org/1999/xlink" x="0px" y="0px"
	 viewBox="0 0 50 50" style="enable-background:new 0 0 50 50;" xml:space="preserve">
<style type="text/css">
	.st0{fill:#999999;}
</style>
<g>
	<g id="XMLID_31_">
		<path id="XMLID_32_" class="st0" d="M30.2,43.3h-2.6V19.9c0,0,0-0.1,0-0.1c0,0,0-0.1,0-0.1c0-1.4-1.2-2.6-2.6-2.6h-5.2
			c-1.4,0-2.6,1.2-2.6,2.6c0,1.4,1.2,2.6,2.6,2.6h2.6v20.9h-2.6c-1.4,0-2.6,1.2-2.6,2.6c0,1.4,1.2,2.6,2.6,2.6h10.4
			c1.4,0,2.6-1.2,2.6-2.6C32.8,44.4,31.7,43.3,30.2,43.3z M25,11.9c2.9,0,5.2-2.3,5.2-5.2c0-2.9-2.3-5.2-5.2-5.2
			c-2.9,0-5.2,2.3-5.2,5.2C19.8,9.6,22.1,11.9,25,11.9z"/>
	</g>
</g>
</svg>
