<?xml version="1.0" encoding="utf-8"?>
<!-- Generator: Adobe Illustrator 19.0.0, SVG Export Plug-In . SVG Version: 6.00 Build 0)  -->
<svg version="1.1" id="Layer_1" xmlns="http://www.w3.org/2000/svg" xmlns:xlink="http://www.w3.org/1999/xlink" x="0px" y="0px"
	 viewBox="0 0 50 50" style="enable-background:new 0 0 50 50;" xml:space="preserve">
<style type="text/css">
	.st0{fill:#999999;}
</style>
<g>
	<g id="XMLID_40_">
		<path id="XMLID_41_" class="st0" d="M43.2,8.3H32.5V4.2c0-1.9-1.6-3.4-3.5-3.4h-8.1c-1.9,0-3.5,1.5-3.5,3.4v4.1H6.8
			C6,8.3,5.3,9,5.3,9.8c0,0.8,0.7,1.5,1.5,1.5h2.1l3.5,35c0.1,1.6,1.5,2.9,3.2,2.9h18.9c1.6,0,3-1.3,3.2-2.9l3.5-35h2.1
			c0.8,0,1.5-0.7,1.5-1.5C44.7,9,44,8.3,43.2,8.3z M20.5,4.2c0-0.2,0.2-0.4,0.5-0.4h8.1c0.2,0,0.5,0.2,0.5,0.4v4.1h-9V4.2z
			 M34.6,46.1c0,0.1-0.1,0.2-0.2,0.2H15.6c-0.1,0-0.2-0.1-0.2-0.2l-3.5-34.7h26.2L34.6,46.1z"/>
	</g>
</g>
</svg>
