<?xml version="1.0" encoding="utf-8"?>
<!-- Generator: Adobe Illustrator 19.0.0, SVG Export Plug-In . SVG Version: 6.00 Build 0)  -->
<svg version="1.1" id="Layer_1" xmlns="http://www.w3.org/2000/svg" xmlns:xlink="http://www.w3.org/1999/xlink" x="0px" y="0px"
	 viewBox="0 0 50 50" style="enable-background:new 0 0 50 50;" xml:space="preserve">
<style type="text/css">
	.st0{fill:#999999;}
</style>
<g>
	<g id="XMLID_56_">
		<path id="XMLID_57_" class="st0" d="M25.2,15.9c-5.1,0-9.2,4.1-9.2,9.2s4.1,9.2,9.2,9.2s9.2-4.1,9.2-9.2S30.2,15.9,25.2,15.9z
			 M25.2,31.2c-3.4,0-6.2-2.8-6.2-6.2c0-3.4,2.8-6.1,6.1-6.1c3.4,0,6.1,2.8,6.1,6.1C31.2,28.4,28.6,31.2,25.2,31.2z M49.5,24.6
			c0-0.1,0-0.2,0-0.2c0,0,0-0.1,0-0.1c0,0,0-0.1,0-0.1C45,14,35.3,8.1,25.1,8.1C14.8,8.1,5,14,0.6,24.2c0,0,0,0.1,0,0.1
			c0,0,0,0,0,0.1c0,0.1,0,0.2,0,0.2c0,0.1-0.1,0.3-0.1,0.4c0,0.1,0,0.3,0.1,0.4c0,0.1,0,0.2,0,0.2c0,0,0,0,0,0.1c0,0,0,0.1,0,0.1
			c4.5,10.2,14.2,16,24.4,16c10.2,0,20-5.8,24.4-16c0,0,0-0.1,0-0.1c0,0,0,0,0-0.1c0-0.1,0-0.2,0-0.2c0-0.1,0.1-0.3,0.1-0.4
			C49.6,24.9,49.6,24.8,49.5,24.6z M25,38.8c-8.7,0-17.2-4.6-21.5-13.8c4.2-9.2,12.8-13.9,21.5-13.9c8.7,0,17.2,4.7,21.4,13.9
			C42.3,34.2,33.7,38.8,25,38.8z"/>
	</g>
</g>
</svg>
